<svg fill="#00a63e" version="1.1" id="Capa_1" xmlns="http://www.w3.org/2000/svg" xmlns:xlink="http://www.w3.org/1999/xlink" viewBox="0 0 388.15 388.15" xml:space="preserve" stroke="#00a63e" stroke-width="0.0038815100000000003"><g id="SVGRepo_bgCarrier" stroke-width="0"></g><g id="SVGRepo_tracerCarrier" stroke-linecap="round" stroke-linejoin="round" stroke="#CCCCCC" stroke-width="3.105208"></g><g id="SVGRepo_iconCarrier"> <g> <g> <path d="M294.442,388.15c1.393-4.576,2.918-9.344,3.938-11.8c24.241-58.511,21.491-120.33,20.417-140.134 c-0.745-13.367-2.054-24.655-9.518-33.615c-11.025-13.153-27.935-17.248-35.158-18.452c-4.588-11.529-11.602-19.11-20.867-22.584 c-3.621-1.36-7.572-2.048-11.715-2.048c-6.966,0-13.229,1.91-17.438,3.615c-5.566-10.104-12.994-16.369-22.098-18.651 c-2.498-0.633-5.143-0.952-7.854-0.952c-8.67,0-16.603,3.27-21.995,6.197c-1.402-9.334-6.29-84.8-9.185-126.176 C162.045,10.302,151.026,0,137.74,0h-0.018c-14.192,0-25.709,11.47-25.767,25.656c-0.435,89.7-2.765,178.297-3.312,191.718 c-8.713,3.963-23.89,9.253-30.643,18.41c-15.444,20.945-8.725,37.362-1.068,50.177c17.285,28.967,47.384,80.74,60.204,102.189 H294.442L294.442,388.15z"></path> </g> </g> </g></svg>